<svg width="32" height="32" viewBox="0 0 32 32" fill="none" xmlns="http://www.w3.org/2000/svg">
  <!-- Background with gradient -->
  <defs>
    <linearGradient id="bgGradient" x1="0%" y1="0%" x2="100%" y2="100%">
      <stop offset="0%" style="stop-color:#1a1a2e;stop-opacity:1" />
      <stop offset="50%" style="stop-color:#16213e;stop-opacity:1" />
      <stop offset="100%" style="stop-color:#0f3460;stop-opacity:1" />
    </linearGradient>
    
    <linearGradient id="starGradient" x1="0%" y1="0%" x2="100%" y2="100%">
      <stop offset="0%" style="stop-color:#ff6b6b;stop-opacity:1" />
      <stop offset="50%" style="stop-color:#e74c3c;stop-opacity:1" />
      <stop offset="100%" style="stop-color:#c0392b;stop-opacity:1" />
    </linearGradient>
    
    <filter id="glow">
      <feGaussianBlur stdDeviation="2" result="coloredBlur"/>
      <feMerge> 
        <feMergeNode in="coloredBlur"/>
        <feMergeNode in="SourceGraphic"/>
      </feMerge>
    </filter>
    
    <filter id="shadow" x="-50%" y="-50%" width="200%" height="200%">
      <feDropShadow dx="0" dy="2" stdDeviation="1" flood-color="#000000" flood-opacity="0.3"/>
    </filter>
  </defs>
  
  <!-- Background circle with gradient -->
  <circle cx="16" cy="16" r="15" fill="url(#bgGradient)" filter="url(#shadow)"/>
  
  <!-- Star with gradient and glow -->
  <path d="M16 6L18.5 12.5L25.5 13.5L20.5 18.5L22 25.5L16 22L10 25.5L11.5 18.5L6.5 13.5L13.5 12.5L16 6Z" 
        fill="url(#starGradient)" 
        filter="url(#glow)"/>
  
  <!-- Inner star highlight -->
  <path d="M16 8L17.5 12L20.5 12.5L17.5 15.5L18.5 18.5L16 16.5L13.5 18.5L14.5 15.5L11.5 12.5L14.5 12L16 8Z" 
        fill="#ffffff" 
        opacity="0.3"/>
  
  <!-- Sparkle effects -->
  <circle cx="8" cy="8" r="1" fill="#ffffff" opacity="0.6"/>
  <circle cx="24" cy="8" r="0.8" fill="#ffffff" opacity="0.4"/>
  <circle cx="8" cy="24" r="0.8" fill="#ffffff" opacity="0.4"/>
  <circle cx="24" cy="24" r="1" fill="#ffffff" opacity="0.6"/>
</svg> 